<svg xmlns="http://www.w3.org/2000/svg" width="60" height="60" viewBox="0 0 60 60" fill="none"><rect width="60" height="60" rx="15" fill="#5468AF"></rect><mask id="mask0_5_5202" style="mask-type:alpha" maskUnits="userSpaceOnUse" x="9" y="9" width="42" height="42"><g clip-path="url(#clip0_5_5202)"><path d="M40.5047 23.947C40.205 26.5131 41.6667 28.8685 43.7465 29.3682C45.8635 29.877 47.4999 32.9184 47.4999 36.125C47.4999 40.4742 43.9741 44 39.6249 44C35.0577 44 31.7499 40.217 31.75 34.3084C31.7765 26.9496 36.3201 21.3573 43.4444 18.8962C41.6958 20.4346 40.7137 22.1578 40.5047 23.947ZM39.6249 45.75C44.9406 45.75 49.2499 41.4407 49.2499 36.125C49.2499 32.1987 47.206 28.3997 44.1554 27.6667C42.9787 27.3839 42.0416 25.8739 42.2429 24.15C42.5124 21.8427 44.599 19.5115 48.7304 17.6745C49.6503 17.2655 49.2651 15.8817 48.2662 16.0067C37.4992 17.3547 30.0358 24.3741 30 34.3052C29.9999 41.1351 34.035 45.75 39.6249 45.75ZM19.5047 23.947C19.205 26.5131 20.6667 28.8685 22.7465 29.3682C24.8635 29.877 26.4999 32.9184 26.4999 36.125C26.4999 40.4742 22.9741 44 18.6249 44C14.0577 44 10.7499 40.217 10.75 34.3084C10.7765 26.9496 15.3201 21.3573 22.4444 18.8962C20.6958 20.4346 19.7137 22.1578 19.5047 23.947ZM18.6249 45.75C23.9406 45.75 28.2499 41.4407 28.2499 36.125C28.2499 32.1987 26.206 28.3997 23.1554 27.6667C21.9787 27.3839 21.0416 25.8739 21.2429 24.15C21.5124 21.8427 23.599 19.5115 27.7304 17.6745C28.6503 17.2655 28.2651 15.8817 27.2662 16.0067C16.4992 17.3547 9.03581 24.3741 9 34.3052C8.99987 41.1351 13.035 45.75 18.6249 45.75Z" fill="#181818"></path></g></mask><g mask="url(#mask0_5_5202)"><rect x="9" y="9" width="42" height="42" fill="white"></rect></g><defs><clipPath id="clip0_5_5202"><rect width="42" height="42" fill="white" transform="translate(9 9)"></rect></clipPath></defs></svg>